<?xml version="1.0" encoding="utf-8"?>
<!-- Generator: Adobe Illustrator 28.3.0, SVG Export Plug-In . SVG Version: 6.00 Build 0)  -->
<svg version="1.1" id="Слой_1" xmlns="http://www.w3.org/2000/svg" xmlns:xlink="http://www.w3.org/1999/xlink" x="0px" y="0px"
	 viewBox="0 0 128 128" style="enable-background:new 0 0 128 128;" xml:space="preserve">
<style type="text/css">
	.st0{fill:#770829;}
	.st1{fill:#E51050;}
	.st2{fill:#E85984;}
	.st3{fill:#FFFFFF;}
</style>
<path class="st0" d="M23.2,0l91.2,20h9.9v108H20.8c-3.6,0-6.5-2.9-6.5-6.5l0,0V94.3l8.7-94L23.2,0z"/>
<path class="st1" d="M23.2,0h85.8c3.6,0,6.5,2.9,6.5,6.5V90H23.2L23.2,0z"/>
<path class="st2" d="M23.2,90V0L3.7,11.8v90L23.2,90z"/>
<path class="st3" d="M77.3,19.7c-5.6,0-11.2,0-16.8,0C55.7,36.4,51,53.1,46.2,69.8c4.2,0,8.3,0,12.5,0c0.9-3.7,1.8-7.3,2.8-11
	c5,0,14.9,0,14.9,0s2.4,8.2,3.2,11c4.3,0,8.5,0,12.8,0C87.4,53.1,82.3,36.4,77.3,19.7z M63.8,49.5c1.6-6.8,5-21.3,5.1-21.6
	c0.1,0.4,3.6,14.8,5.2,21.6C70.7,49.5,67.2,49.6,63.8,49.5z M46,100.2c4.1-3.5,12.9-2.2,12.8,4.3c-1.5,0-2.9,0-4.4,0
	c0-2.7-3.4-3.5-5.1-1.7c-0.6,0.7-0.7,1.6-0.7,2.4c0,2,0,4.1,0,6.1c-0.5,4.3,5.7,5.2,5.9,0.8c1.5,0,3,0,4.4,0c0.1,6.5-8.9,8.1-13,4.3
	c-3-2.8-1.9-7.2-2.1-10.9C43.9,103.5,44.6,101.5,46,100.2L46,100.2z M68.7,102c-0.7,2.7-1.3,5.5-1.9,8.2c1.3,0,2.6,0,3.9,0
	C70,107.5,69.3,104.7,68.7,102L68.7,102z M65.5,98.9c2.1,0,4.2,0,6.4,0c1.9,6.3,3.8,12.7,5.7,19c-1.6,0-3.2,0-4.9,0
	c-0.4-1.4-0.8-2.8-1.2-4.2c-1.9,0-3.8,0-5.7,0c-0.4,1.4-0.7,2.8-1.1,4.2c-1.6,0-3.2,0-4.7,0C61.9,111.5,63.7,105.2,65.5,98.9
	L65.5,98.9z M94.2,103.1c-2.3-5.7-9.4-4-14.3-4.3v19c4.3-0.2,9.6,1,12.9-2.4c1.5-1.6,2-3.8,1.9-6C94.8,107.4,95.1,105.2,94.2,103.1z
	 M89.8,112.1c-0.6,2.4-3.1,2.4-5.1,2.3c0-4.1,0-8.1,0-12.2c1.4,0.1,3.1-0.3,4.3,0.8c1.1,1.1,1.1,2.8,1.1,4.3
	C90,108.9,90.2,110.6,89.8,112.1z"/>
</svg>
