<?xml version="1.0" encoding="utf-8"?>
<!-- Generator: Adobe Illustrator 28.3.0, SVG Export Plug-In . SVG Version: 6.00 Build 0)  -->
<svg version="1.1" id="Слой_1" xmlns="http://www.w3.org/2000/svg" xmlns:xlink="http://www.w3.org/1999/xlink" x="0px" y="0px"
	 viewBox="0 0 128 128" style="enable-background:new 0 0 128 128;" xml:space="preserve">
<style type="text/css">
	.st0{fill:#923B00;}
	.st1{fill:#FF6B00;}
	.st2{fill:#FF9447;}
	.st3{fill:#FFFFFF;}
</style>
<path class="st0" d="M23.2,0l91.2,20h9.9v108H20.8c-3.6,0-6.5-2.9-6.5-6.5l0,0V94.3l8.7-94L23.2,0z"/>
<path class="st1" d="M23.2,0h85.8c3.6,0,6.5,2.9,6.5,6.5V90H23.2L23.2,0z"/>
<path class="st2" d="M23.2,90V0L3.7,11.8v90L23.2,90z"/>
<path class="st3" d="M56.4,20.6c10.5,0,21,0,31.5,0c-0.1,2.9,0.1,6-0.1,8.9c-6.4,0-12.7,0-19.1,0c0,3.9,0,7.9,0,11.8
	c5.4,0,10.8,0,16.2,0V50c-5.4,0-10.8,0-16.2,0v19.9c-4.1,0-8.2,0-12.3,0V20.6z M47.4,100.3c2.2-2,5.4-2.3,8.2-1.5
	c1.7,0.5,3.4,1.7,3.7,3.5c0.1,1.1,0.2,2.3-0.4,3.2c-0.7,1-1.8,1.5-3,1.8c1.7,0.3,3.5,1.3,3.9,3c0.3,1.7,0.3,3.7-1,5
	c-1.5,1.7-3.8,2.3-5.9,2.3c-1.9,0-3.9-0.3-5.5-1.6c-1.2-0.9-1.8-2.4-2.1-3.8c1.5-0.1,2.9,0,4.4-0.1c0.3,2.1,3.2,2.8,4.8,1.6
	c0.9-0.8,0.9-2.2,0.6-3.3c-0.8-1.7-3-1.5-4.5-1.5c0-1.1,0-2.1,0-3.1c1.1,0,2.2,0.1,3.2-0.3c1.2-0.6,1.2-2.2,0.7-3.2
	c-1.3-1.5-4.2-0.8-4.3,1.3c-1.5,0-2.9,0-4.4,0C45.9,102.5,46.4,101.2,47.4,100.3 M66.6,109.8c0.1,1.2-0.2,2.5,0.4,3.5
	c0.9,1.2,2.8,1.2,3.9,0.4c1-0.9,0.9-2.4,0.8-3.7c-0.2-1.1-1.4-1.7-2.4-1.6C68.3,108.6,67.4,109.1,66.6,109.8 M65.2,99.4
	c2.3-1.2,5.2-1.2,7.6-0.3c1.9,0.7,3.2,2.6,3.2,4.6c-1.4,0-2.7,0-4.1,0c-0.3-2.1-3.3-2.5-4.7-1.2c-1,1.2-0.6,2.9-0.7,4.3
	c2.5-2.4,7.2-2,9,1c0.8,1.3,0.8,2.9,0.7,4.4c-0.1,2.2-1.7,4.1-3.7,4.8c-2.3,0.9-5.1,0.9-7.4-0.1c-1.9-0.9-3.2-2.9-3.3-5
	c0-2.4,0-4.7,0-7.1C62.1,102.7,63.2,100.5,65.2,99.4 M85.1,101.9c-1.1,0.4-1.5,1.6-1.6,2.6c0,2.2,0,4.3,0,6.5c0,1,0.2,2.3,1.1,2.9
	c1.3,0.8,3.4,0.5,3.9-1c0.5-1.7,0.2-3.5,0.3-5.2c-0.1-1.6,0.3-3.3-0.4-4.8C87.7,101.7,86.2,101.5,85.1,101.9 M84,98.7
	c2.3-0.4,4.8-0.3,6.8,1c1.8,1.2,2.5,3.4,2.5,5.5c0,2.3,0.1,4.5,0,6.8c-0.1,2.2-1.5,4.4-3.6,5.2c-2.6,1-5.6,0.9-8-0.5
	c-1.8-1.1-2.7-3.2-2.7-5.3c0-1.9,0-3.9,0-5.9c0-1.6,0.3-3.3,1.3-4.6C81.1,99.7,82.5,99,84,98.7"/>
</svg>
